# xmcd
#
# Track frame offsets:
# 150
# 16666
# 57818
# 85185
# 103970
# 117748
# 143321
# 170136
# 180651
#
# Disc length: 2744 seconds
#
#
# Revision: 0
# Processed by: cddbd v1.5.1PL0 Copyright (c) Steve Scherf et al.
# Submitted via: FreeRIP 2.91 
#
DISCID=720ab609
DTITLE=The Paul Butterfield Blues Band - The Resuurection of Pigboy Crabshaw
DYEAR=1900
DGENRE=Blues
TTITLE0=One more heartache
TTITLE1=Driftin' and driftin'
TTITLE2=Pity the fool
TTITLE3=Born under a bad sign
TTITLE4=Run out of time
TTITLE5=Double trouble
TTITLE6=Drivin' wheel
TTITLE7=Droppin' out
TTITLE8=Tollin' bells
EXTD=
EXTT0=
EXTT1=
EXTT2=
EXTT3=
EXTT4=
EXTT5=
EXTT6=
EXTT7=
EXTT8=
PLAYORDER=
